<svg width="1920" height="1080" viewBox="0 0 1920 1080" xmlns="http://www.w3.org/2000/svg"><rect width="1920" height="1080" fill="#909ad0"/><path d="M 0,1080 C 0,1080 0,135 0,135 C 8.834232002884846,122.36090170623851 17.668464005769692,109.721803412477 100,118 C 182.3315359942303,126.278196587523 338.160375979806,155.47368805633053 362,151 C 385.839624020194,146.52631194366947 277.6900320750062,108.38344436220083 341,119 C 404.3099679249938,129.61655563779917 639.0794957201693,188.9925344948661 728,181 C 816.9205042798307,173.0074655051339 759.9919850443166,97.64641765833476 766,92 C 772.0080149556834,86.35358234166524 840.9525641025643,150.42179487179487 934,153 C 1027.0474358974357,155.57820512820513 1144.197758545427,96.66640285448577 1232,100 C 1319.802241454573,103.33359714551423 1378.256401715728,168.9125937102621 1408,184 C 1437.743598284272,199.0874062897379 1438.7766345916605,163.68322230446586 1460,161 C 1481.2233654083395,158.31677769553414 1522.63705991763,188.35451707187457 1605,184 C 1687.36294008237,179.64548292812543 1810.6751257378198,140.89870940803584 1870,127 C 1929.3248742621802,113.10129059196416 1924.66243713109,124.05064529598208 1920,135 C 1920,135 1920,1080 1920,1080 Z" fill="#454346" opacity="0.075"/><path d="M 0,1080 C 0,1080 0,270 0,270 C 54.338250868302694,292.73354685038623 108.67650173660539,315.4670937007725 149,311 C 189.3234982633946,306.5329062992275 215.63224392188118,274.86517204729637 276,251 C 336.3677560781188,227.13482795270363 430.79452257586985,211.07221811004192 456,231 C 481.20547742413015,250.92778188995808 437.1896657746398,306.84595551253585 535,310 C 632.8103342253602,313.15404448746415 872.4468143255707,263.54395983981476 945,263 C 1017.5531856744293,262.45604016018524 923.0230769230772,310.9782051282051 970,318 C 1016.9769230769228,325.0217948717949 1205.4608779821212,290.5432196473647 1264,289 C 1322.5391220178788,287.4567803526353 1251.133411148437,318.84891628233595 1305,316 C 1358.866588851563,313.15108371766405 1538.0054774241303,276.0611152232914 1589,278 C 1639.9945225758697,279.9388847767086 1562.8446791550416,320.90662282449847 1550,311 C 1537.1553208449584,301.09337717550153 1588.6158059557026,240.31239347871474 1661,225 C 1733.3841940442974,209.68760652128526 1826.6920970221486,239.84380326064263 1920,270 C 1920,270 1920,1080 1920,1080 Z" fill="#454346" opacity="0.15"/><path d="M 0,1080 C 0,1080 0,405 0,405 C 84.15159710755565,417.208161096244 168.3031942151113,429.41632219248805 192,435 C 215.6968057848887,440.58367780751195 178.9388202471104,439.5428723262919 253,443 C 327.0611797528896,446.4571276737081 511.9415247964471,454.41218850234407 584,446 C 656.0584752035529,437.58781149765593 615.2950805671012,412.8083736643322 650,413 C 684.7049194328988,413.1916263356678 794.8781529351479,438.3543168403272 856,428 C 917.1218470648521,417.6456831596728 929.1923076923076,371.77435897435896 940,354 C 950.8076923076924,336.22564102564104 960.3526162956214,346.54824726223694 993,358 C 1025.6473837043786,369.45175273776306 1081.3972271252064,382.03265197669344 1153,394 C 1224.6027728747936,405.96734802330656 1312.0584752035527,417.3211448309894 1403,406 C 1493.9415247964473,394.6788551690106 1588.368872060582,360.682768699349 1625,359 C 1661.631127939418,357.317231300651 1640.4660365541197,387.9477803716146 1680,401 C 1719.5339634458803,414.0522196283854 1819.7669817229403,409.5261098141927 1920,405 C 1920,405 1920,1080 1920,1080 Z" fill="#454346" opacity="0.22499999999999998"/><path d="M 0,1080 C 0,1080 0,540 0,540 C 54.783968190703945,555.3921900206874 109.56793638140789,570.7843800413749 148,558 C 186.4320636185921,545.2156199586251 208.5122226650724,504.25466985518807 276,494 C 343.4877773349276,483.74533014481193 456.38317295830257,504.19694053787316 518,512 C 579.6168270416974,519.8030594621268 589.9550855017176,514.9575679933192 648,521 C 706.0449144982824,527.0424320066808 811.796485034827,543.9727874888497 876,549 C 940.203514965173,554.0272125111503 962.8589743589741,547.1512820512821 995,544 C 1027.1410256410259,540.8487179487179 1068.7676175292759,541.4220843060222 1104,527 C 1139.2323824707241,512.5779156939778 1168.0705555239233,483.1603807246294 1223,495 C 1277.9294444760767,506.8396192753706 1358.9501603750311,559.9363927954603 1433,561 C 1507.0498396249689,562.0636072045397 1574.128802975953,511.09404809352986 1648,501 C 1721.871197024047,490.90595190647014 1802.5346277211563,521.68741483042 1849,535 C 1895.4653722788437,548.31258516958 1907.7326861394217,544.15629258479 1920,540 C 1920,540 1920,1080 1920,1080 Z" fill="#454346" opacity="0.3"/><path d="M 0,1080 C 0,1080 0,675 0,675 C 89.82322306363758,688.3027909051225 179.64644612727517,701.605581810245 256,702 C 332.35355387272483,702.394418189755 395.23743855453694,689.8804636641424 440,681 C 484.76256144546306,672.1195363358576 511.4037996545769,666.8725635331853 531,665 C 550.5962003454231,663.1274364668147 563.1473628271555,664.6292822031163 615,659 C 666.8526371728445,653.3707177968837 758.0067490368009,640.6103076543491 803,639 C 847.9932509631991,637.3896923456509 846.8256410256411,646.9294871794872 914,651 C 981.1743589743589,655.0705128205128 1116.6906868606352,653.6717436277023 1174,660 C 1231.3093131393648,666.3282563722977 1210.4116115318186,680.383538309704 1238,688 C 1265.5883884681814,695.616461690296 1341.66286701209,696.7941031334814 1366,684 C 1390.33713298791,671.2058968665186 1362.936920419822,644.4400491563704 1462,640 C 1561.063079580178,635.5599508436296 1786.5894513086223,653.4457002410371 1884,663 C 1981.4105486913777,672.5542997589629 1950.7052743456888,673.7771498794814 1920,675 C 1920,675 1920,1080 1920,1080 Z" fill="#454346" opacity="0.375"/><path d="M 0,1080 C 0,1080 0,810 0,810 C -37.388521323236354,814.1599793125699 -74.77704264647271,818.31995862514 18,803 C 110.77704264647271,787.68004137486 333.71964926265446,752.8801448120101 417,766 C 500.28035073734554,779.1198551879899 443.898445595855,840.1594621268197 446,846 C 448.101554404145,851.8405378731803 508.68656835392585,802.4820066807115 582,796 C 655.3134316460742,789.5179933192885 741.3552809884417,825.9125111503349 773,845 C 804.6447190115583,864.0874888496651 781.8923076923076,865.8679487179487 835,848 C 888.1076923076924,830.1320512820513 1017.0754882423278,792.6156939778701 1116,784 C 1214.9245117576722,775.3843060221299 1283.8057393383817,795.6692753705706 1307,793 C 1330.1942606616183,790.3307246294294 1307.7015544041449,764.707204539847 1323,762 C 1338.2984455958551,759.292795460153 1391.3880430450379,779.5019064700411 1469,790 C 1546.6119569549621,800.4980935299589 1648.7462734157036,801.2851695799882 1728,803 C 1807.2537265842964,804.7148304200118 1863.6268632921483,807.3574152100059 1920,810 C 1920,810 1920,1080 1920,1080 Z" fill="#454346" opacity="0.44999999999999996"/><path d="M 0,1080 C 0,1080 0,945 0,945 C 90.69331454383268,963.6464470762398 181.38662908766537,982.2928941524797 249,979 C 316.61337091233463,975.7071058475203 361.14679819317115,950.4748704663211 426,946 C 490.85320180682885,941.5251295336789 576.0261781396497,957.8076239822354 576,958 C 575.9738218603503,958.1923760177646 490.74848924823016,942.2946336047372 512,945 C 533.2515107517698,947.7053663952628 660.9798648674297,969.0138415988157 751,961 C 841.0201351325703,952.9861584011843 893.3320512820513,915.65 935,902 C 976.6679487179487,888.35 1007.6919300043653,898.3861584011843 1075,900 C 1142.3080699956347,901.6138415988157 1245.9002287004876,894.8053663952628 1284,909 C 1322.0997712995124,923.1946336047372 1294.7071551936838,958.3923760177646 1327,978 C 1359.2928448063162,997.6076239822354 1451.2711505247773,1001.6251295336787 1552,994 C 1652.7288494752227,986.3748704663213 1762.2082427072064,967.1071058475203 1825,957 C 1887.7917572927936,946.8928941524797 1903.8958786463968,945.9464470762398 1920,945 C 1920,945 1920,1080 1920,1080 Z" fill="#454346" opacity="0.525"/></svg>