<svg viewBox="0 0 300 100" xmlns="http://www.w3.org/2000/svg">
    <defs></defs>
    <g id="SvgjsG1219" featurekey="symbolContainer" fill="#53b2d1" transform="matrix(1, 0, 0, 1, 5.319507, -11.983052)">
        <rect y="0" height="1" width="1" opacity="0"></rect>
        <rect y="99" width="70" height="5"></rect>
    </g>
    <g id="SvgjsG1220" featurekey="symbolFeature-0" transform="matrix(1.063764, 0, 0, 1.063764, -13.29649, -13.660237)"
        fill="#53b2d1">
        <title xmlns="http://www.w3.org/2000/svg">18</title>
        <g xmlns="http://www.w3.org/2000/svg" data-name="Group">
            <path data-name="Compound Path"
                d="M74.2,17.6a8.2,8.2,0,0,0-7.9,6.2H57.9a8.2,8.2,0,1,0,0,4h8.4a8.2,8.2,0,1,0,7.9-10.2ZM50,29.9a4.2,4.2,0,1,1,4.2-4.2A4.2,4.2,0,0,1,50,29.9Zm24.2,0a4.2,4.2,0,1,1,4.2-4.2A4.2,4.2,0,0,1,74.2,29.9Z">
            </path>
            <path data-name="Compound Path"
                d="M25.8,66.1a8.2,8.2,0,1,0,8.2,8.2A8.2,8.2,0,0,0,25.8,66.1Zm0,12.3a4.2,4.2,0,1,1,4.2-4.2A4.2,4.2,0,0,1,25.8,78.4Z">
            </path>
            <path data-name="Compound Path"
                d="M74.2,41.4a8.1,8.1,0,0,0-5.5,14.2L55.8,68.6A8.2,8.2,0,0,0,52,66.3V57.5a8.2,8.2,0,1,0-4,0v8.8a8.2,8.2,0,1,0,9.9,5.8L72.5,57.6l1.7.2a8.2,8.2,0,1,0,0-16.3ZM45.8,49.6A4.2,4.2,0,1,1,50,53.8,4.2,4.2,0,0,1,45.8,49.6ZM50,78.4a4.2,4.2,0,1,1,4.2-4.2A4.2,4.2,0,0,1,50,78.4ZM74.2,53.8a4.2,4.2,0,1,1,4.2-4.2A4.2,4.2,0,0,1,74.2,53.8Z">
            </path>
            <path data-name="Compound Path"
                d="M74.2,66.1a8.2,8.2,0,1,0,8.2,8.2A8.2,8.2,0,0,0,74.2,66.1Zm0,12.3a4.2,4.2,0,1,1,4.2-4.2A4.2,4.2,0,0,1,74.2,78.4Z">
            </path>
            <path data-name="Compound Path"
                d="M33.9,25.8a8.2,8.2,0,1,0-9.8,8v8.6a8.2,8.2,0,1,0,4,.2V33.6A8.2,8.2,0,0,0,33.9,25.8Zm-12.3,0a4.2,4.2,0,1,1,4.2,4.2A4.2,4.2,0,0,1,21.6,25.8Zm8.3,24.6a4.2,4.2,0,1,1-4.2-4.2A4.2,4.2,0,0,1,29.9,50.4Z">
            </path>
        </g>
    </g>
    <g id="SvgjsG1221" featurekey="nameFeature-0" transform="matrix(1.233654, 0, 0, 1.233654, 93.93782, 3.558528)"
        fill="#1a5468">
        <path
            d="M23.12 18.48 l0 19.52 q0 3.04 -1.44 5.3 t-4.04 3.48 t-6 1.22 q-2.64 0 -5.02 -0.76 t-4.34 -2.08 l2.28 -4.32 q3.04 2.16 6.68 2.16 q2.64 0 4.2 -1.3 t1.56 -3.5 l0 -2.44 q-1.08 1.52 -2.72 2.32 t-3.76 0.8 q-2.76 0 -4.9 -1.3 t-3.32 -3.66 t-1.18 -5.44 q0 -3.04 1.18 -5.34 t3.32 -3.58 t4.9 -1.28 q2.08 0 3.72 0.82 t2.76 2.3 l0 -2.92 l6.12 0 z M15.6 32.66 q1.4 -1.54 1.4 -4.02 t-1.4 -4.04 t-3.64 -1.56 t-3.64 1.56 t-1.44 4.04 q0.04 2.48 1.42 4.02 t3.66 1.54 q2.24 0 3.64 -1.54 z M37.84 19.32 q1.8 -1.04 4.2 -1.08 l0 5.8 q-0.32 -0.04 -0.96 -0.04 q-2.84 0 -4.5 1.54 t-1.66 4.1 l0 10.36 l-6.16 0 l0 -21.52 l6.16 0 l0 3.88 q1.12 -2 2.92 -3.04 z M62.54 21.28 q2.7 3 2.7 8.36 q0 0.96 -0.04 1.48 l-15.44 0 q0.52 2.04 2 3.18 t3.56 1.14 q1.52 0 2.92 -0.58 t2.52 -1.7 l3.24 3.28 q-1.64 1.84 -3.98 2.82 t-5.22 0.98 q-3.4 0 -5.94 -1.36 t-3.92 -3.84 t-1.38 -5.72 q0 -3.28 1.4 -5.78 t3.92 -3.88 t5.76 -1.38 q5.2 0 7.9 3 z M59.44 27.48 q-0.08 -2.12 -1.36 -3.4 t-3.4 -1.28 q-2 0 -3.34 1.26 t-1.7 3.42 l9.8 0 z M86.41999999999999 21.28 q2.7 3 2.7 8.36 q0 0.96 -0.04 1.48 l-15.44 0 q0.52 2.04 2 3.18 t3.56 1.14 q1.52 0 2.92 -0.58 t2.52 -1.7 l3.24 3.28 q-1.64 1.84 -3.98 2.82 t-5.22 0.98 q-3.4 0 -5.94 -1.36 t-3.92 -3.84 t-1.38 -5.72 q0 -3.28 1.4 -5.78 t3.92 -3.88 t5.76 -1.38 q5.2 0 7.9 3 z M83.32 27.48 q-0.08 -2.12 -1.36 -3.4 t-3.4 -1.28 q-2 0 -3.34 1.26 t-1.7 3.42 l9.8 0 z M112.49999999999999 20.48 q2.14 2.24 2.14 6 l0 13.52 l-6.16 0 l0 -11.72 q0 -2.04 -1.14 -3.22 t-3.1 -1.18 q-2.28 0.04 -3.6 1.58 t-1.32 3.94 l0 10.6 l-6.16 0 l0 -21.52 l6.16 0 l0 3.76 q2.24 -3.92 7.44 -4 q3.6 0 5.74 2.24 z M139.55999999999997 34.72 l0 5.28 l-21.04 0 l0 -4.36 l10.36 -10.68 q1.4 -1.4 2.22 -2.74 t0.82 -2.34 q0 -1.32 -1.02 -2.06 t-2.82 -0.74 t-3.84 0.92 t-3.96 2.56 l-2.48 -4.72 q5.52 -4.12 11.2 -4.12 q2.8 0 4.96 0.9 t3.36 2.52 t1.2 3.78 q0 2.12 -1.4 4.4 t-3.96 4.92 l-6.44 6.48 l12.84 0 z M161.06 26.04 q2.18 2 2.18 5.2 q0 2.64 -1.38 4.7 t-3.92 3.2 t-5.94 1.14 q-2.92 0 -5.82 -0.9 t-4.9 -2.38 l2.44 -4.68 q1.72 1.44 3.72 2.2 t4.08 0.76 q2.64 0 4.08 -1.06 t1.44 -2.94 t-1.44 -2.86 t-4.12 -0.98 l-4.52 0 l0 -3.6 l7 -6.76 l-11.24 0 l-0.04 -5.12 l19.16 0 l0 3.8 l-8.08 7.6 l1.44 0.2 q3.68 0.48 5.86 2.48 z">
        </path>
    </g>
</svg>